<?xml version="1.0" encoding="UTF-8" standalone="no"?>
<svg width="717px" height="286px" viewBox="0 0 717 286" version="1.1" xmlns="http://www.w3.org/2000/svg" xmlns:xlink="http://www.w3.org/1999/xlink" xmlns:sketch="http://www.bohemiancoding.com/sketch/ns">
    <!-- Generator: Sketch 3.3 (11970) - http://www.bohemiancoding.com/sketch -->
    <title>Shape</title>
    <desc>Created with Sketch.</desc>
    <defs></defs>
    <g id="Page-1" stroke="none" stroke-width="1" fill="none" fill-rule="evenodd" sketch:type="MSPage">
        <path d="M714.239667,80.0009875 C714.807808,78.8699184 713.291029,78.0307381 712.905318,77.0690687 C712.07135,77.2619238 710.916826,77.1681024 709.882184,77.2619238 C708.94397,76.1230363 708.083941,77.81964 707.041481,77.1576778 C706.194482,78.5780296 704.200777,78.3903868 703.158317,79.5292744 C700.890967,79.9983814 698.996296,81.3275179 696.90877,82.3699779 C696.627305,82.648836 696.145168,82.4742239 696.066983,82.1875474 C694.539779,83.7903297 692.272429,84.4548979 690.375151,85.5833609 C689.614156,87.2956015 687.159162,86.1645324 686.119308,87.9549574 C685.449528,89.667198 683.75553,87.3816044 682.991928,89.0912388 C681.376115,90.2301264 680.247652,91.9371547 678.066305,92.1195852 C676.541707,92.9665839 675.121355,94.11329 673.609788,95.15575 C673.244927,95.3381805 672.567328,95.2391468 672.384898,94.6736122 C672.189436,91.5462322 671.425835,88.330243 671.720329,85.0230386 C671.720329,83.0423646 672.189436,81.0356291 671.720329,79.2425979 C672.848792,77.0534318 671.808939,74.4994048 672.189436,72.2320543 L672.658543,71.4762708 C671.24601,70.9029178 672.384898,69.6780273 672.384898,68.8258162 C673.140681,67.2100032 672.854005,65.6984362 672.658543,63.9992263 C672.658543,63.0505877 673.805249,63.1470153 673.805249,62.2009828 C672.770608,60.6842035 673.805249,58.5080682 672.848792,56.8974675 C673.239715,55.568331 673.135469,53.952518 672.093009,52.7276274 C670.771691,51.0075684 668.314091,50.9293839 666.422026,50.2569972 C665.734003,50.4472462 664.795789,49.6836442 664.222436,50.4472462 C663.557868,50.3534248 662.809903,50.6401013 662.432011,50.2569972 C662.051513,49.6836442 660.347091,50.4472462 661.102874,49.2145372 C661.389551,47.3198661 660.438306,46.2904369 659.799799,44.7580206 C659.304631,44.7580206 658.642669,44.7580206 658.262171,44.2889136 C658.455026,44.2889136 658.455026,44.0986647 658.455026,44.017874 C657.886885,44.851842 656.844425,43.8172005 655.989608,43.913628 C653.618011,43.5409486 651.342842,42.6704945 648.601173,43.3454873 C647.642109,43.3454873 646.698683,44.6694115 645.765681,43.9110219 C645.765681,44.4791626 644.910864,44.3879473 644.618975,45.0499095 C643.576515,45.2375523 642.724304,45.9021205 641.687056,46.2852246 C640.550775,47.7967916 638.559676,46.9419744 637.136719,48.2658986 C635.911828,48.8392516 634.778153,49.6836442 633.636659,50.3508186 C632.317947,51.2108481 630.509279,51.2994572 629.27657,52.5321662 C626.441079,54.3304097 622.748164,55.1800146 620.467783,57.9268968 C619.529569,56.6081848 618.481897,58.3100008 617.350827,58.3100008 C616.214546,59.5348913 614.510124,59.4410699 613.663125,61.1428859 C612.709274,60.2046719 612.047312,61.9064879 611.096067,61.4295624 C609.5845,61.4295624 608.74532,63.0453754 607.31715,63.4232672 C607.31715,63.5118763 607.212904,63.7047314 607.416184,63.7047314 C606.285114,64.6429454 605.044587,63.7047314 604.002127,65.0338679 C602.110062,64.5517301 602.480135,67.4888612 601.072814,67.3012184 C600.207573,68.1508233 598.795039,66.73829 598.03665,68.2472509 C595.847484,68.1482172 594.531378,70.3399894 592.355243,70.4285985 C590.364144,70.8977055 589.514539,73.2614835 587.234158,72.9774132 C585.722591,74.2283652 583.444816,74.1241192 582.032282,75.4454373 C580.234039,76.0187903 578.626044,77.334896 576.819982,78.0880734 C576.444697,78.5702112 575.490846,77.9108552 575.308415,78.6692449 C574.839308,80.4674884 572.558927,79.1383519 571.80575,80.7463464 C569.812045,81.0330229 568.399511,82.54459 566.499628,82.9355125 C565.934094,81.9008709 566.030521,80.6681619 566.411019,79.6257019 C566.411019,78.4894205 567.075587,77.2541054 566.692483,75.9249689 C567.734943,75.1691854 566.692483,74.4003711 567.169409,73.3709418 C567.351839,73.0894776 567.820946,72.9800193 567.820946,72.7011613 C567.448267,71.5700922 568.498545,70.246168 568.099804,68.82321 C569.24651,67.4940735 566.97916,66.5506472 566.50484,65.3231506 C565.9367,64.7497975 564.993273,64.7497975 564.331311,64.2754782 C562.728529,64.0826231 561.308177,64.4709395 560.356932,62.9463417 C557.993154,63.0505877 555.621558,63.3372642 553.528819,62.7560928 C551.827003,63.4336918 549.932332,63.8037651 548.238335,63.5196947 C547.190662,63.4310856 547.860443,62.6596652 547.469521,62.0081277 C549.468438,61.7110266 548.055904,60.0144229 548.517193,58.9719629 L548.238335,58.9719629 C547.096841,57.2649347 549.841117,55.8445829 548.055904,54.3330159 C550.047003,51.2160604 545.30381,51.3046695 544.258744,48.8496762 C543.125068,48.1929264 541.798538,48.9539222 541.040148,47.7186071 C539.148083,47.0540388 537.912768,47.6195734 535.932094,47.6195734 C533.656925,46.3008615 531.006471,47.7186071 528.530628,47.3328969 C528.071946,48.0964988 527.227553,47.6195734 526.367524,47.7186071 C525.987026,48.4665721 525.411067,47.7186071 524.944566,47.9062499 C523.521608,48.8574946 521.243833,47.9062499 519.555048,48.1929264 C517.652558,48.8574946 515.750069,48.7532486 513.86061,49.1311404 C512.732147,48.5708181 511.879936,50.1788127 510.837476,49.6132782 C509.508339,49.6992811 507.905557,49.7957087 506.388778,49.8921362 C505.627782,50.1788127 505.059641,49.1363527 504.4915,49.9833515 C502.8809,50.270028 500.696946,50.4602769 499.002948,50.7469534 C498.051704,51.122239 496.907604,50.270028 496.15182,51.122239 C494.163328,51.0232053 492.086226,51.3150941 490.079491,51.695592 C487.726137,51.3150941 485.174716,52.164699 482.610265,51.695592 C481.567805,52.9204825 479.95981,51.7868073 478.91735,52.6390183 C478.435212,53.3035866 478.072957,52.738052 477.405783,52.738052 C472.472341,53.6840845 467.361681,54.056764 462.618488,55.4745096 C461.013099,54.7265445 459.316496,56.3397514 457.406188,56.24593 C455.339511,57.757497 452.115703,56.9965012 449.926537,58.33085 L449.650285,58.0441735 C447.852042,58.7947447 445.574267,58.33085 444.067912,59.7459895 C439.421146,59.9414507 435.347734,61.5546576 431.172682,62.8733695 C429.953003,64.0122571 428.530045,62.8733695 427.305155,63.9158295 C424.37063,64.567367 422.00164,66.563678 418.965475,67.0353911 C416.036162,68.2654939 412.807142,68.7476317 409.963833,70.1627712 C409.40351,70.0585252 409.208049,71.1061975 408.457478,70.8247333 C405.621987,71.9584085 402.585822,72.5317615 399.752937,73.7644705 C397.373522,75.8493905 394.25396,76.0370333 391.600899,77.5512065 C389.612407,77.4599912 388.278058,78.7839155 386.487633,79.2608409 C385.445173,78.2183809 385.25753,80.008806 384.21507,79.9123784 C383.550502,80.4857314 382.792112,79.9123784 382.320399,79.4432714 C381.937295,78.8777369 381.937295,78.30699 382.320399,77.7440616 C381.46037,76.795423 382.789506,76.6963893 383.076183,76.0422456 C382.984967,75.3750712 383.167398,74.6192877 383.451468,73.9573256 C383.925788,73.1103268 383.073577,73.1103268 382.695685,72.53958 C384.869214,71.2990526 385.439961,68.5599889 385.439961,66.008568 C386.57103,64.6637946 387.251235,62.8733695 386.951528,61.1663412 C387.902773,60.4053454 388.090415,59.3602793 388.090415,58.2292102 C388.768014,55.8576136 389.714047,53.5980816 389.714047,51.1274513 C390.078908,50.9528393 390.660079,50.7547719 390.847722,50.2778464 C390.36819,49.3266017 391.68169,48.8653131 391.408044,47.9140683 C392.364501,46.2200708 392.268074,44.1195139 392.638147,42.2248428 C394.045468,40.9165555 393.300109,39.1104935 393.2115,37.4034653 C392.16904,37.4034653 392.54172,35.9779012 391.405438,36.1707563 L389.990299,35.2325423 C387.144383,35.0422933 384.400107,32.2875927 381.468188,34.0962609 C380.618583,34.2839037 379.38848,34.2839037 379.200838,35.2299361 C377.298348,37.502499 379.00277,40.4422362 377.488597,42.9962632 C377.775274,44.5078302 376.164673,45.9333943 376.727601,47.4527798 C376.063033,48.5838489 375.588714,49.8087394 375.497498,51.1352698 C375.497498,51.8910533 374.181393,52.2819758 375.028391,52.9387256 C374.178786,53.7857244 375.315068,55.0158272 374.090177,55.6856077 C374.090177,59.1882734 371.901011,61.8439403 371.815008,65.1537508 C370.110586,66.8659914 370.954979,69.7014826 369.82391,71.6899751 C368.971699,72.1695067 369.641479,72.7324351 369.258375,73.2953635 C368.502592,75.3802835 368.02306,77.6606648 368.119488,79.8420124 C366.125783,81.3587917 366.503675,84.1004615 365.367393,86.0863479 C364.231112,85.9951326 363.477934,86.9463774 362.52669,87.4076659 C360.819661,87.2252354 359.96745,89.1173003 358.263028,88.9192329 C355.044433,89.8782962 352.021299,91.4888969 348.896525,92.5365692 C347.663816,92.4271109 346.629174,94.2383852 345.57629,93.0968914 C344.906509,94.0533485 343.772834,94.235779 342.730374,94.1393515 C342.357695,94.9889564 341.218807,95.833349 341.218807,97.0686641 C341.974591,97.7202016 342.073624,98.7782985 343.121297,99.1535841 C342.928441,101.144683 345.206217,101.890042 346.527535,102.937714 C346.90282,103.406821 347.752425,103.04196 348.031283,103.787319 C349.36042,102.935108 349.652309,105.306704 351.171694,104.834991 C351.724198,104.746382 351.927477,106.065094 352.485194,105.210277 C354.481505,105.593381 355.336322,103.229603 357.31439,103.69871 C358.547099,101.996894 359.39931,104.264244 360.538197,104.550921 C361.11155,105.207671 360.916089,106.349164 360.355767,106.901668 C360.720628,109.187262 358.838987,110.982899 359.123058,113.169459 C358.750378,114.967703 358.455883,116.854555 358.080598,118.754439 C357.517669,120.067938 358.263028,121.777573 357.517669,123.197924 C357.413423,124.89974 357.131959,126.604162 358.169207,127.933299 C358.367274,129.82797 360.540803,130.393505 361.492048,131.826887 C362.821185,132.004105 363.848008,133.333242 365.088535,133.333242 C366.506281,134.469523 368.398346,133.515672 370.014159,134.089025 C370.855945,133.619918 371.901011,133.150811 372.086048,131.91289 C371.147834,129.463109 373.709679,127.74305 372.95129,125.006592 C372.187688,124.159594 372.482183,123.012888 372.09126,122.066855 C372.573398,120.268612 373.034687,118.183692 372.47697,116.289021 C373.613252,115.819914 373.514218,114.39435 373.329182,113.448317 C373.988538,113.067819 373.516824,112.687321 373.615858,112.223427 C374.647893,111.173148 373.615858,109.85183 374.559284,108.892767 C375.127425,108.332445 375.028391,107.198769 374.645287,106.638447 C375.885815,105.778417 375.127425,104.363278 375.69296,103.127963 C376.448743,101.238504 377.108099,99.150978 376.829241,96.9774488 C377.585025,95.6483123 379.477089,95.8307428 379.852375,94.3087512 C381.754865,94.0481362 384.022215,93.5633923 384.97346,91.5644752 C386.01592,91.8511517 386.112347,90.4334061 386.954134,90.8034794 C388.765408,91.8511517 389.046872,89.198091 390.550621,89.2971247 C392.166434,89.0156605 393.591998,89.0156605 395.098353,88.9114145 C396.140813,87.8689545 397.847841,88.6351626 398.895513,87.582278 C400.219438,87.3008138 401.44954,87.008925 402.481576,86.070711 C404.571708,86.8264945 404.389278,84.0822185 406.455955,85.0334632 C407.310772,83.5166839 409.309689,83.8945757 410.253115,82.7582943 C411.954931,82.4716178 412.80193,80.477913 414.701813,80.5769467 C415.17092,80.4805191 415.835489,80.6811927 416.127377,80.1078397 C416.31502,78.9689521 417.539911,79.0653797 418.394728,78.8725246 C418.863835,79.8211632 419.437188,78.3955991 420.185153,78.6796695 C421.436105,77.6424218 423.325564,77.3453206 424.740703,76.7849984 C425.02738,76.2168577 425.590308,76.1230363 426.174086,75.9301812 C426.304393,75.9301812 426.434701,75.9301812 426.465975,76.0005472 C426.554584,74.9320257 427.891539,75.3490097 428.425799,74.7938998 C431.000676,75.5496833 433.268026,73.459551 435.816841,73.0920838 C436.848876,72.0391992 438.662757,72.331088 439.991893,71.9453778 C441.211571,70.5328445 443.309522,70.9029178 444.912304,70.3452017 C446.241441,68.7372071 447.560153,71.2000189 448.988323,69.8708824 C450.413887,70.1497404 451.055,67.9814236 452.40238,68.8284223 C452.193888,67.8797837 453.351018,68.2550693 453.62727,67.4992858 L453.908734,67.6921409 C453.908734,69.6806334 451.537138,70.350414 451.636172,72.2398727 C451.537138,73.1911175 450.119392,73.7566521 450.776142,74.7052907 C449.272393,75.8441782 449.744107,78.2965654 447.844223,79.0575612 C447.747796,79.2530225 448.042291,79.3442377 448.042291,79.4328468 C448.229933,79.9019538 448.328967,80.5743405 447.943257,80.9548384 C447.74519,82.562833 447.273476,84.1708276 447.179655,85.6902131 C445.668088,86.1697447 446.528118,87.4884566 446.129377,88.5361289 C445.295409,90.3343724 445.477839,92.51572 444.623022,94.2957205 C445.00352,96.093964 444.531807,97.6211679 444.623022,99.3308023 C445.566448,100.073555 445.092129,101.785796 446.619333,102.171506 C447.083227,103.396396 447.844223,104.248607 448.878865,105.004391 C450.301823,105.473498 451.047182,107.375987 452.85585,106.711419 C454.08074,106.523776 454.289232,108.314201 455.688735,107.459384 C457.116905,107.459384 458.534651,108.131771 459.853363,107.746061 C460.426716,108.319414 461.469176,108.03795 462.133744,107.941522 C463.371665,106.41953 465.834477,106.888637 466.402618,104.9236 C467.63272,104.636924 467.908972,103.208754 469.238109,103.114932 C469.238109,102.836074 469.238109,102.541579 469.040041,102.359149 C470.760101,100.362838 473.321946,99.6148727 475.013337,97.6211679 C475.769121,95.8151059 476.908008,94.6762184 478.054714,92.9691901 C478.419575,92.2316496 479.175359,91.5566568 480.035388,91.3716201 C480.31164,90.8920885 481.546955,90.7122642 480.775535,89.8600531 C482.11249,89.007842 483.160162,87.2069924 484.676942,86.2583538 C484.859372,85.0334632 485.526547,83.8919695 486.284936,82.9485432 C486.196327,81.710622 486.954717,80.7593772 487.144966,79.539699 C486.759256,77.1681024 488.661745,73.8504735 485.99826,71.9558024 C484.682154,71.3954801 483.54066,69.4955968 481.932666,70.7361242 C481.656414,69.6858457 482.88391,68.4531367 482.115096,67.1396371 C482.683237,66.3682167 481.656414,65.8026822 481.552168,65.0547171 C482.98555,64.567367 484.40069,64.8566497 485.813223,64.7602221 C486.959929,63.7177621 488.95624,64.0878354 489.894454,62.7639112 C491.510267,63.1548337 492.649155,61.4478055 494.246725,62.3990502 C495.383006,63.4415102 494.715832,61.5494453 495.669683,61.3565902 C497.090034,62.5814807 499.088951,61.4478055 500.501485,61.3565902 C501.648191,61.3565902 502.787078,60.5069853 503.727898,60.7884495 C504.960607,59.269064 506.464356,60.8770586 507.897738,59.9362384 C509.409305,60.311524 510.652439,60.0222414 512.1614,59.7407772 C512.812937,59.355067 513.391503,58.8963846 514.238501,58.9797814 C515.098531,58.0415674 516.703919,59.355067 517.358063,58.3282439 C518.327551,58.2239979 519.740084,58.3282439 520.782544,58.6149204 C521.527903,58.4194591 522.09865,57.7548909 522.674609,57.2727531 L522.956073,57.6558572 C524.564068,57.270147 526.179881,58.4116407 527.790482,57.4551836 C528.270013,56.0426503 529.771156,56.9912889 530.813616,56.6994001 C531.673645,57.184144 532.429429,56.8114645 533.185212,57.3665745 C533.273821,58.7895324 534.045242,60.501773 533.093997,61.7188451 C532.617072,62.2921981 533.466676,63.0479816 532.713499,63.5223009 C533.000176,64.8514374 532.140146,65.9981434 532.140146,67.4054644 C530.907437,68.8310285 531.097686,70.7309119 530.248081,72.2398727 C529.487085,74.7078968 528.642693,77.0612503 527.224947,79.2504163 C527.881697,81.3353363 524.944566,82.7504758 526.073029,84.7363621 C523.988109,85.4921456 523.519002,87.6813117 522.862252,89.2840939 C521.626937,90.7904487 521.155224,92.5886922 520.683511,94.2931143 C519.555048,95.4450326 519.737478,97.0478149 519.25534,98.3743453 C520.490655,99.5106267 520.303013,101.874405 522.390539,101.788402 C524.762135,103.769076 527.404771,104.728139 530.146441,105.663747 C531.663221,105.285855 532.994963,104.055752 533.560498,102.632794 C534.305857,101.871799 534.793207,100.547874 535.358741,99.5054144 C535.079883,97.9078444 536.875521,96.9592058 537.443661,95.4398203 C538.017014,94.2931143 539.911685,93.8240073 539.338332,92.3124403 C539.429548,91.0875498 540.571041,90.7018396 541.230397,90.136305 C541.324219,88.8123808 542.559534,88.5283104 542.741964,87.2956015 C542.84621,85.0230386 545.01974,84.3558642 544.93113,82.0780891 C546.247236,81.1398751 547.276665,78.7682786 549.65608,79.5344867 C549.749902,79.3390254 549.929726,79.1435642 550.229433,79.2478102 C551.550751,79.4302407 551.550751,80.8558047 551.459536,82.0780891 C550.990429,82.1823351 551.550751,83.3290411 550.703753,83.0423646 C550.789756,84.4496856 550.047003,85.4999641 550.125187,86.8212822 C549.932332,87.3868167 549.65608,87.9575636 549.468438,88.4370952 C548.522405,90.9833038 547.096841,94.217536 546.823195,97.2458823 C546.445304,99.1379472 546.5287,101.415722 547.193269,103.396396 C548.522405,104.438856 548.43119,106.714025 550.320649,107.27956 C550.888789,109.077803 553.354207,107.938916 554.099566,109.554729 C555.725804,110.029048 557.513623,109.458301 558.655116,108.316808 C560.922467,108.413235 561.016288,105.476104 562.733741,104.918388 C562.916172,102.833468 565.282556,103.015898 566.236407,101.504331 C566.145192,100.553087 567.182439,100.269016 567.747974,99.7920909 C569.259541,99.984946 569.554036,98.1814902 570.588677,97.6211679 C571.440889,96.9618119 573.246951,96.7611384 573.059308,95.3407866 C574.76373,94.8664673 572.866453,93.3601126 574.101768,92.8779748 C576.087654,92.9665839 578.070934,91.9397608 579.027391,90.2301264 C579.405283,90.2301264 579.871784,90.1310927 580.252282,90.3187355 C581.388563,89.7453825 582.623878,89.562952 583.744523,89.1772418 C584.140658,88.1347818 585.647012,88.0409604 586.408008,87.1965678 C587.06997,86.6284271 588.487716,86.7274608 588.404319,85.5729363 C589.055857,85.1116477 589.728243,84.7259375 590.572636,84.9213988 C590.950528,83.8789388 592.558522,84.7259375 592.657556,83.3134042 C594.831085,82.8364788 596.540719,81.0356291 598.901891,80.7437403 C601.17706,80.5613098 602.79548,78.202744 605.073255,78.202744 C604.682332,76.4878973 606.678643,77.4365359 607.340605,76.6755401 C607.236359,76.1152178 607.236359,75.5470771 607.723709,75.2525822 C609.894632,74.4967987 612.07598,74.0276917 613.962832,72.7923765 C614.145263,70.8977055 616.433463,72.9018348 617.184034,71.567486 C618.51317,71.7499165 618.419349,70.525026 619.646846,70.525026 C620.499057,69.482566 622.018442,69.951673 622.774226,68.8206039 C624.390039,69.0968558 625.336071,67.397646 626.177858,66.2665769 L625.909424,65.9851127 C626.482777,65.6984362 626.675632,64.8436189 627.329776,65.036474 C627.251591,65.9851127 626.097067,66.5480411 626.482777,67.5800765 C624.960786,69.0186713 624.575075,71.2755972 623.636861,73.183299 C623.256363,73.8348366 623.162542,75.1691854 622.224328,74.971118 C622.597008,75.7347199 622.224328,76.4878973 621.937652,77.1524655 C621.55976,78.9507091 620.895192,80.8479863 620.426085,82.7400512 C619.951765,83.0371523 620.704943,83.4958347 620.147226,83.7825112 C620.423478,85.4895395 618.904093,86.245323 618.531413,87.7699208 C619.096948,89.1772418 617.574956,90.8816639 618.140491,92.5912983 C618.706026,94.0298932 620.04298,94.7674336 620.147226,96.3858528 C620.608515,96.8601721 621.08544,97.9052383 621.94547,97.6993524 C622.688223,99.1327349 624.499497,98.647991 625.247462,99.8885184 C627.05613,100.357625 628.669337,101.777977 630.652617,101.400085 L630.652617,101.582516 L631.502222,101.678943 C632.263218,102.434727 633.404712,102.627582 634.447172,102.348724 C635.763277,101.496513 637.376484,102.348724 638.700409,101.215049 C639.841902,100.824126 640.016514,99.6044481 640.696719,98.7470247 C643.526998,98.0772442 643.526998,94.7596152 645.815198,93.4304786 C647.889694,90.5949874 649.403867,87.2799646 651.775463,84.6216915 C651.582608,83.0267277 653.560676,82.4507686 654.225244,81.311881 C654.042814,79.8784985 655.648202,79.122715 656.591629,78.653608 C657.256197,80.5560975 656.878305,82.5367715 656.96952,84.5304763 C656.690662,86.4199351 657.537661,88.121751 657.058129,90.1206681 C658.001556,90.5975936 656.688056,91.7286627 657.735728,92.0153392 C657.350018,94.1002592 658.397691,96.0809332 658.673942,98.1658533 C659.424514,99.4063807 659.424514,100.917948 660.003079,102.148051 C661.618892,103.289544 661.704895,105.562107 663.594354,106.50814 C663.130459,108.587847 665.872129,107.73303 666.635731,109.158594 C668.061295,109.158594 669.007327,110.571127 670.154033,111.053265 C671.561354,112.017541 672.9791,110.109839 674.402058,111.053265 C675.454942,110.863016 676.872688,111.913295 677.529438,110.57634 C677.339189,109.072591 679.046217,109.924802 679.614358,108.871918 C680.083465,107.274348 681.793099,106.708813 683.210845,105.95303 C683.299454,104.243395 685.478195,104.918388 685.572017,103.302575 C686.150582,102.718797 686.432046,101.973438 687.279045,101.973438 C688.712428,99.9771275 691.162209,100.735517 692.686806,98.9398798 C693.338344,98.4603482 694.380804,98.3665268 694.860336,97.6993524 C697.033865,95.6274631 700.15082,95.3355743 702.152343,92.6955443 C702.522417,92.4010494 703.272988,92.7789411 703.272988,92.1221913 C705.092081,92.0257638 704.888801,90.2301264 706.327396,89.5681643 C706.697469,89.2814878 707.257791,89.5681643 707.455859,89.8496285 C707.742535,89.8496285 707.742535,89.3805215 707.831144,89.0860265 C709.256708,88.5257043 711.047133,88.0435665 711.623093,86.4277535 C712.279842,86.0576802 712.470091,87.1965678 712.933986,86.9151036 C713.038232,86.3417506 712.847983,85.966465 712.751556,85.4895395 C712.933986,85.2888659 713.038232,85.0204325 713.31709,85.1116477 C715.40201,84.8301835 713.507339,82.7400512 714.085904,81.6194067 C714.925085,81.4109147 715.597471,81.8956586 716.358467,81.6194067 C716.525261,79.6230958 714.35955,81.8018372 714.260516,79.9931691 L714.239667,80.0009875 Z M475.784758,70.3582324 C475.409472,69.9673099 475.597115,70.6370905 475.219223,70.5406629 C476.444114,72.3389064 473.983908,73.3813664 474.554655,75.0910009 C472.949267,76.4149251 473.720687,78.9689521 471.523702,79.8237693 C470.194566,79.9071661 470.392633,81.5255853 469.438782,82.0833014 C468.77682,84.0744 466.415648,85.2106814 465.659865,87.2956015 C465.461797,89.562952 463.098019,89.7453825 462.240596,91.543626 C461.380567,92.0257638 460.259922,92.690332 459.022001,92.3098341 C457.708501,90.8816639 458.456466,88.7133471 459.126247,87.2903892 C459.691781,85.9612527 460.262528,84.4496856 460.439746,83.2247951 C461.383173,82.0780891 461.013099,80.373667 462.055559,79.3338131 C462.800918,77.7232124 463.757375,76.2064331 464.799835,74.7912936 C466.128972,73.183299 465.555619,69.672815 468.401535,69.8656701 C469.543028,69.0994619 470.674098,69.482566 471.906807,69.0186713 C472.292517,68.9222437 472.576587,69.0968558 472.66259,69.3835323 L472.66259,69.6702088 C473.418374,69.2011018 474.658901,69.2949232 475.597115,69.8630639 C475.693543,70.0454944 475.883791,70.1497404 475.784758,70.3452017 L475.784758,70.3582324 Z M648.429167,61.8309095 C648.429167,63.1548337 648.053881,64.8592558 648.236312,66.2822138 C647.96006,66.2822138 647.759386,66.6548932 647.480528,66.8555668 C648.236312,68.2628878 646.724745,69.4043815 646.724745,70.9133424 C646.151392,71.8671933 646.445886,73.1025084 645.585857,73.8530796 C645.11675,75.9484242 643.41754,77.6580587 642.562723,79.5501236 C640.57423,81.8174741 639.448374,84.4679287 637.251389,86.2687784 C636.592033,86.2687784 636.592033,87.0245619 636.313175,87.4988812 C635.270715,88.4527321 634.314258,89.4013707 633.177977,90.1571542 C631.770656,89.7662317 630.910626,89.6880472 630.253876,88.1582371 C631.478767,87.1157771 631.00966,85.3175336 632.430012,84.178646 C632.617654,82.0103292 634.428929,80.4909437 635.182106,78.5128759 C636.12032,76.6989954 637.918564,75.2812498 638.121843,73.1103268 C638.773381,72.922684 639.45098,72.1616882 639.815841,71.4945138 C639.45098,70.8325517 640.394406,71.1114098 640.394406,70.5510875 C641.984158,68.752844 642.852006,66.6627117 644.46,65.0599294 C645.494642,64.2963274 645.494642,62.776942 646.831597,62.307835 C648.066912,62.0289769 648.715843,59.2768825 649.951158,61.265375 C649.46902,61.6458729 649.091129,62.0211585 648.439591,61.838728 L648.429167,61.8309095 Z M328.532069,106.813059 C327.958716,105.379677 328.714499,103.878534 328.344426,102.361755 C327.114323,101.032618 328.717105,99.2343748 327.958716,98.0016658 C327.672039,96.3962774 327.208144,94.7778582 326.629579,93.2662912 C325.881614,92.7059689 325.118012,91.9475793 324.17198,91.8459394 C322.759446,90.240551 321.240061,91.9501854 319.436605,91.2804049 C316.981612,90.0503021 314.797658,91.5592629 312.243631,91.9501854 C312.04817,94.1263207 310.627818,95.6431 309.212678,97.0582395 C308.545504,99.0389135 307.127758,99.7999093 305.988871,101.697187 C305.613585,103.589251 303.526059,104.154786 303.338416,106.148491 C302.400202,107.66527 300.693174,108.136983 299.937391,109.744978 C299.176395,111.162723 298.702075,112.676897 297.477185,113.71675 C295.861372,115.056312 294.44102,116.948377 293.78427,118.830017 C292.645383,120.159153 291.608135,121.384044 289.984504,122.147646 C289.796861,120.052301 289.332966,117.122989 290.469247,115.045887 C292.554167,113.430074 289.799467,111.538009 291.511707,109.729341 C292.647989,108.595666 293.492381,107.175314 293.974519,105.567319 C295.772763,102.434727 295.011767,99.1301288 294.253377,95.8098936 C294.743333,95.3329682 294.743333,94.6683999 294.633875,94.1106838 C295.963012,93.2506543 294.545266,92.0257638 295.016979,90.9754853 C295.016979,89.1772418 293.124914,87.7699208 291.613347,87.1965678 C290.284211,86.818676 289.147929,85.7710037 287.534723,86.0602864 C286.870154,85.11686 285.827694,85.0230386 284.884268,85.4869333 C284.214487,84.543507 283.078206,85.2002568 282.13478,85.0178263 C281.102744,85.5755424 279.859611,85.7683976 279.580753,87.1965678 C279.476507,90.9754853 278.921397,94.6710061 277.87633,98.0902749 C276.547194,100.826732 274.373665,98.0902749 272.382566,98.647991 C270.584323,99.221344 268.499403,98.752237 266.701159,99.7868786 C265.372023,100.459265 263.479958,99.8911246 262.156033,100.641696 C260.349972,100.928372 259.216296,102.161081 257.517086,102.635401 C256.094129,105.001785 253.722532,103.769076 252.304786,106.049457 C251.736646,108.415841 248.604053,107.274348 247.665839,109.653763 C246.623379,110.313119 246.328884,111.154905 245.197815,111.634437 C245.1066,113.333646 243.02168,113.242431 242.174681,114.279679 C241.027975,115.134496 240.186189,116.176956 239.240156,117.120382 C238.098663,117.036986 238.283699,118.553765 237.249058,118.553765 C236.389028,119.218333 236.295207,120.526621 235.250141,120.821115 C234.116465,121.384044 233.180857,123.283927 231.94033,122.436929 C231.836084,119.778655 231.278368,116.937952 231.752687,114.279679 C231.10115,112.28858 233.081824,108.415841 229.772013,108.228199 C229.011017,107.855519 229.863228,107.368169 229.573946,106.805241 C229.011017,105.856602 227.775702,105.95303 226.923491,105.476104 C226.07128,103.581433 223.900357,104.058358 222.566008,102.833468 C221.054441,101.874405 223.321792,101.027406 223.14718,99.8963369 C224.280855,98.5672004 224.37207,96.2868191 223.423432,94.6840368 C222.474793,94.6840368 222.276726,93.6467891 222.008292,93.0812545 C220.296052,92.5965106 218.8757,91.8459394 217.551776,90.709658 C216.881995,90.709658 216.319067,90.5194091 215.753532,90.1467296 C215.370428,89.0964511 214.32015,89.7558071 213.569578,89.1902725 C211.588904,88.3380615 209.704658,89.9460561 207.89599,89.0964511 C206.957776,90.3317663 205.532212,89.2893062 204.393324,89.8600531 C203.833002,88.7263778 202.881757,89.1928787 201.834085,89.2867001 C200.979268,90.1467296 200.231303,89.7558071 199.097627,89.6776226 C196.058856,90.9911222 192.561403,90.1467296 189.616454,91.7547242 C186.403071,92.2368619 183.64837,93.8396442 180.338559,94.0429239 C179.488954,95.8255305 177.404034,94.3035389 176.082716,95.2521775 C175.032438,97.050421 172.762481,95.4502449 171.521954,97.050421 C169.822744,96.9644181 168.587429,98.0928811 166.98204,98.0928811 C165.366227,99.794697 162.999843,100.073555 160.831526,99.9875521 C158.929037,102.359149 155.431584,100.362838 153.63334,103.114932 C152.398025,102.267933 152.304203,103.870716 151.261743,104.060965 C150.315711,103.688285 149.176823,104.347641 148.42104,104.816748 C148.04836,104.920994 147.370761,105.006997 147.091903,104.634318 C145.953016,105.19464 144.537876,105.293674 143.782093,106.328315 C143.307774,106.719238 143.026309,106.242312 142.828242,105.958242 C142.270526,106.145885 141.986456,106.531595 141.598139,107.089311 C139.416792,106.628022 138.575005,109.174231 136.39887,109.083016 C135.632662,110.498155 133.930846,110.029048 132.880567,110.873441 C132.797171,111.545828 132.221211,112.025359 131.462822,111.822079 C130.42818,113.625535 128.061796,112.484042 127.11837,114.193676 C126.25834,114.571568 125.398311,114.571568 124.548706,114.193676 C123.305572,115.514994 120.855791,115.236136 119.716904,116.943164 C119.529261,116.750309 119.336406,116.750309 119.159187,116.565272 C118.403404,117.224628 116.683345,117.042198 117.069055,118.558977 C116.026595,118.830017 115.077956,118.830017 113.847854,119.022872 C112.513505,119.413794 111.658688,121.394468 110.152333,120.925361 C109.571161,122.254498 108.255056,121.69157 107.311629,121.967821 C105.711453,124.521849 102.954146,125.095202 100.686796,126.413913 C100.222901,126.507735 99.1752289,126.127237 98.8025495,126.70059 C97.0929151,126.04384 96.2485225,127.92548 94.8099276,127.92548 C94.7265308,129.059156 93.7778922,128.115729 93.2983606,128.876725 C92.9282873,128.96794 92.6337924,128.780298 92.2559006,128.694295 C91.7920059,130.198043 89.899941,129.155583 89.6106583,130.779215 C88.7610534,130.500357 87.9036301,132.478425 87.6221659,130.961645 C87.7133811,130.388292 88.2033373,129.736755 88.8522687,129.92961 C89.6080522,128.694295 91.4062957,128.782904 91.6981845,127.271337 C93.0116841,127.271337 92.6259739,125.569521 93.1055055,124.71731 C93.4860034,124.156988 94.7213185,123.956314 94.2365746,123.010282 C94.8959306,123.106709 95.6595326,122.728817 96.0348182,122.160677 C95.1904255,118.835229 100.673765,118.56419 100.394907,115.713061 C102.386006,115.33517 101.810047,113.060001 102.943722,111.926325 C105.03646,111.926325 104.465714,109.658975 105.224103,108.42366 C106.07892,107.863338 105.792244,106.534201 106.931131,106.33874 C106.65488,104.735957 109.29491,104.63953 108.630341,102.841286 C109.292303,101.51215 109.47734,99.7139064 111.205217,98.9581229 C110.618834,96.9774488 112.42229,95.6483123 112.899215,93.8396442 C114.79128,92.3280772 114.215321,89.5838012 115.453242,87.7855577 C115.739919,87.2122047 115.922349,86.1775631 115.348996,85.7006377 C115.072744,83.8971818 117.155058,82.8599341 116.586917,80.7671956 C117.725805,78.2209871 115.544457,75.9458181 116.300241,73.668043 C118.476376,72.9200779 115.924955,70.8273394 116.109992,69.4069877 C116.214238,69.1203111 116.586917,68.9483052 116.870988,68.8466654 C116.49049,66.3812475 116.584311,63.8272204 115.44803,61.4608362 C113.928644,59.0006306 112.9774,56.1651393 112.328468,53.3218297 C111.572685,52.6572614 110.902904,51.6200137 110.055905,51.4271586 C110.055905,50.9580516 110.613621,50.5671291 110.712655,50.2856649 C109.764017,49.6341274 110.902904,48.586455 109.678014,48.0183143 C109.112479,45.8343606 107.209989,44.4218273 106.263957,42.4150918 C105.508174,40.2441688 102.015932,40.6324851 102.66747,38.0680335 C100.400119,35.7016493 97.9294892,32.673303 95.1018164,31.0574899 C93.9629289,31.0574899 93.5798248,29.7413842 92.4435434,29.7413842 C92.1516546,27.1769325 89.326588,28.0213251 88.0912729,26.4185429 C87.2364557,25.2822615 85.6232488,25.2822615 84.5807888,24.3336228 C82.6001147,24.4378688 81.7452975,21.4929193 79.5717684,22.4415579 C78.8055603,21.6857744 77.393027,22.0506354 76.8248863,20.9299909 C74.8363938,22.0506354 73.7913276,19.6894635 71.800229,20.0699614 C70.757769,19.3063594 69.141956,19.5852175 67.8310625,19.3063594 C67.44014,18.7512495 66.7886025,18.2717179 66.032819,18.6470035 C64.1172987,17.700971 62.1444431,18.6470035 60.2471659,18.1778965 C59.1108845,18.6470035 57.6879266,18.360327 56.7471064,17.9042507 C56.5542513,17.4247191 56.7471064,16.7575447 57.2110011,16.3822591 C58.3524948,15.9001213 58.0658183,14.4797696 59.2047059,13.8230198 C59.6868437,11.8345273 61.3860535,10.7034582 61.9489819,8.89739621 C63.0956879,7.66208109 61.6623054,6.43458443 61.4798749,5.30090916 C60.9065219,4.53470106 60.1507384,3.59127474 59.2907089,3.69030845 C58.8294203,3.49745334 58.3524948,3.01792174 58.1596397,2.55402703 C56.0903566,1.04246001 53.8073692,0.286676504 51.2533422,-2.84217094e-14 C50.7842352,0.286676504 50.5053771,0.755783509 49.9346302,0.85481721 C48.610706,2.74688213 46.1505004,4.16462775 45.9602514,6.62222723 C44.0707927,9.76003187 42.1735154,13.0594178 41.5193718,16.8643969 C39.994774,18.5583944 40.2840567,21.0342369 39.4292395,23.0149109 C38.1001029,25.0112219 38.3867795,27.653858 37.0654614,29.738778 C36.8778186,32.3918387 35.3610393,34.4741526 34.0292966,36.6450756 C33.7530447,38.9228507 32.2414777,40.6324851 31.7567338,42.7955897 C30.995738,45.1776108 29.9584902,47.4527798 29.5858108,50.0015945 C27.8761764,51.330731 29.6718137,53.8899704 27.7015643,55.0158272 C27.3106418,58.9120215 25.5123983,62.2192259 25.7052534,66.3786413 C24.0894404,68.1768848 24.2901139,70.8351579 23.8079762,72.9982624 C23.8079762,73.3891849 22.8515191,73.772289 23.5343304,74.2492144 C23.2476539,75.7607814 22.7707285,77.2723484 22.7707285,78.7839155 C21.3503767,80.2042672 22.3016215,82.093726 21.5458379,83.8059666 C20.0342709,84.751999 22.4058675,85.3123213 21.6370532,86.3652059 C19.8388097,86.9385589 20.9698788,89.198091 19.7528067,90.2483695 C20.1176677,91.9527916 18.3142119,93.4591463 19.7528067,94.9811379 C20.1176677,95.8281367 19.08042,95.8281367 18.7051344,96.2946375 C18.3142119,96.771563 18.7963497,97.2484884 18.7963497,97.7123831 C17.9441386,98.9529106 17.6600682,100.649514 17.6600682,102.364361 C17.2691457,103.485005 16.9042847,104.735957 17.6600682,105.778417 C15.9478277,106.628022 17.1857489,108.879736 16.1406828,109.935227 C16.0442552,111.363397 15.5725421,112.400645 15.4891453,114.008639 C15.189438,115.989313 13.487622,117.787557 14.4362607,119.872477 C13.3938006,121.853151 12.6380171,124.407178 13.2895546,126.687559 C11.7910184,128.016696 13.1149426,130.56551 12.1584855,132.176111 C12.062058,132.559215 11.4860988,132.939713 11.7858061,133.322817 C12.3487345,134.182847 11.2046346,134.928206 10.9257766,135.694414 C10.9257766,137.961764 10.0735655,140.140506 10.3524236,142.418281 C9.59142775,142.981209 9.98235026,143.747417 10.0735655,144.581385 C8.55418004,146.666305 9.01546859,149.697258 8.74442899,152.165282 C8.93467794,154.059953 7.41529247,155.482911 8.36393109,157.273336 C8.07725458,157.567831 7.79057808,157.755474 7.50390157,157.943117 C7.79057808,159.644933 6.84193947,161.161712 7.22764967,162.873952 C7.13382827,166.173338 5.33037245,169.485755 6.28161721,172.991027 C5.2391572,175.748334 6.37283246,178.680252 5.7030519,181.609565 L4.11330038,183.415627 C2.48185046,183.986374 1.1605324,185.401513 0.214499935,186.827077 C-0.343216172,187.869537 0.308321336,189.008425 0.787852942,189.850211 C2.39584751,191.935131 3.82662388,194.306728 6.47707846,194.689832 C7.60293528,195.437797 8.83303809,196.196187 9.8650735,196.678324 C10.7329215,196.391648 11.3896713,196.954576 12.0542395,196.574078 C12.1506671,195.158939 14.042732,196.193581 14.7073003,195.257973 C16.2188673,194.502189 18.0301416,195.435191 19.3462473,194.022658 C20.1984584,192.602306 21.1549154,190.999524 21.530201,189.289889 C22.6769071,188.169245 24.2822955,187.121572 25.6010074,186.076506 C25.6010074,184.278263 27.8683579,185.310298 27.8683579,183.517267 C30.3442005,182.099521 32.3248745,179.816534 34.8789015,178.409213 C35.165578,176.801218 37.250498,177.168685 37.6257836,175.844761 C39.4240272,175.088978 40.4664872,173.577411 42.4680104,173.202125 C43.2107632,171.575887 44.7223302,171.20842 46.1557127,170.736707 C46.9974992,170.345785 47.5786706,169.876678 47.6620674,168.834218 C48.9912039,167.705755 51.2637668,167.705755 52.118584,165.811083 C53.6353633,164.56795 56.288424,165.232518 57.0363891,162.965168 C59.1291276,163.442093 59.4131979,160.697817 61.4016904,160.880248 C62.7204023,159.746572 63.9557174,159.082004 65.2770355,157.846689 C66.7990271,158.044756 68.0187053,157.184727 69.160199,156.048445 C70.392908,155.579338 71.1539038,154.531666 72.6654708,154.437845 C74.0832164,154.338811 73.8903613,152.743847 75.1152519,152.352925 C76.2541394,152.162676 77.0177414,151.023788 78.3416656,150.929967 C78.9019878,150.84657 79.0114462,149.512221 79.7620174,149.978722 C80.6168346,149.80411 81.6645069,149.900538 81.8417251,148.845047 C82.5975086,148.662616 83.5617841,148.474973 84.2081093,147.711372 C84.9638928,146.006949 87.2468803,146.94777 88.2893403,145.725485 C89.9833378,145.438809 91.4167203,144.492776 92.8344659,143.734387 C94.4424605,142.882176 95.9540275,141.928325 97.6558435,141.169935 C97.7600895,140.708646 98.4220516,140.04929 98.8937647,139.840798 C99.9362248,140.04929 100.030046,138.811369 100.78583,138.9938 C101.731862,138.707123 103.345069,139.087621 103.91321,137.95134 C105.990311,138.524693 106.185773,136.061881 108.174265,136.439773 C108.549551,135.584955 109.868263,135.970666 110.071542,134.922993 C110.446828,134.740563 110.728292,135.110636 111.014969,135.110636 C111.770752,134.922993 112.344105,134.354853 112.719391,133.7815 C113.475174,134.068176 113.85046,132.934501 114.413388,133.599069 C116.029201,132.170899 118.30437,132.374179 119.815937,130.758366 C120.858397,130.002582 122.468998,130.185013 123.412424,128.863694 C124.553918,129.046125 125.314914,127.633592 126.539804,127.633592 C128.061796,127.821234 128.155617,125.173386 129.948649,126.398277 C130.516789,126.304455 130.808678,125.832742 130.808678,125.264601 C132.799777,125.355817 133.644169,123.174469 135.729089,123.648788 C136.484873,123.461145 137.717582,123.362112 137.897406,122.231043 C139.990145,122.804396 140.842356,120.813297 142.737027,120.907118 C144.157378,119.108875 146.896442,119.776049 148.131757,117.876166 L148.314188,118.162842 L148.796326,117.495668 C149.742358,117.964775 150.021216,116.549636 150.980279,117.112564 C151.822066,116.726854 153.052169,116.630426 153.622915,115.887673 C154.279665,115.687 154.944233,114.845213 155.608802,115.31432 C156.270764,114.36047 157.500867,114.548112 157.980398,113.516077 C159.296504,114.845213 160.052288,112.460586 161.483064,113.411831 C162.525524,113.411831 163.270883,112.650835 164.224734,112.838478 C165.543446,111.048053 167.724793,111.337336 169.437034,110.294876 C171.511529,109.434846 173.789304,109.71631 175.775191,109.148169 C176.994869,108.014494 178.808749,108.105709 180.223889,107.915461 C181.17774,107.159677 181.936129,106.865182 183.072411,106.69057 C183.458121,104.900145 185.717653,105.934786 186.856541,105.554289 C187.523715,106.862576 185.996511,107.352532 185.344974,108.394992 C183.348663,109.63552 181.644241,111.613587 180.320316,113.60208 C178.43607,114.738361 177.956538,116.539211 176.630008,118.050778 C176.160901,119.760412 174.552906,120.891482 173.883126,122.49687 C172.757269,125.155143 171.13885,127.615349 170.489918,130.466477 C169.72371,132.155262 168.965321,134.049933 169.254603,135.850783 C167.925467,138.136376 168.303359,140.862409 168.402392,143.434679 C168.965321,144.477139 168.491001,145.988706 169.536068,146.848736 C170.200636,148.534915 170.859992,150.531226 172.580051,151.474652 C173.140373,152.814213 174.93601,153.559572 175.968046,154.888709 C178.902571,155.555883 180.992703,158.857875 184.312938,158.297553 C184.312938,158.026513 184.401547,157.922267 184.495369,157.737231 C185.441401,157.163878 186.489073,158.023907 187.440318,158.396587 C188.47496,157.06745 190.181988,158.122941 191.505912,157.458373 C192.269514,157.171696 192.358123,156.408094 192.829836,155.759163 L193.872297,156.137055 C194.529046,156.324697 194.354434,155.563702 194.727114,155.376059 C195.863395,155.376059 196.525357,154.046922 197.656426,153.856673 C198.036924,153.012281 198.803132,153.012281 199.267027,152.248679 C200.413733,152.248679 199.829955,150.163759 201.357159,150.632866 L204.771216,147.422089 C205.526999,146.74449 205.70943,145.715061 206.75189,145.337169 C207.046385,143.439892 209.973091,143.241824 209.871452,140.870228 C210.549051,139.932014 211.297016,138.511662 212.62094,138.329231 C213.767646,136.426742 215.938569,134.821353 216.415494,132.647824 C216.691746,132.157868 217.640385,132.256902 217.54917,131.501118 C217.927061,130.362231 220.017194,129.598629 218.972127,128.477984 C219.071161,128.191308 219.454265,127.617955 219.920766,127.805598 C222.7745,131.310869 226.553418,133.111719 229.777225,135.853389 C231.570257,136.04885 233.47014,137.469202 235.359599,136.895849 C236.120595,138.034736 237.540946,137.469202 238.5808,137.268528 C239.247975,135.855995 241.145252,136.426742 242.177287,135.475497 C242.463964,134.907356 242.742822,134.33661 243.409996,134.433037 C246.068269,132.540972 247.668445,130.080767 250.029617,128.282523 C250.326719,126.291424 252.878139,126.197603 253.443674,124.774645 C254.968272,124.123108 255.721449,123.080648 256.571054,121.655083 C257.425871,121.264161 257.994012,120.028846 258.843617,120.318129 C261.204789,117.008318 265.377235,115.679181 268.882507,114.076399 C268.309154,111.235696 271.340106,113.60208 272.103708,111.897658 C272.666637,111.610981 272.760458,112.452768 273.237383,112.452768 L273.993167,111.702197 C274.376271,111.603163 274.56652,111.790806 274.74895,111.988873 C274.657735,116.617395 274.944412,121.735874 275.509946,126.374821 C276.26573,127.313035 275.890444,128.738599 276.26573,129.885305 C277.402011,130.813095 276.83387,132.525335 278.071792,133.466155 C278.254222,135.45986 280.052466,136.411105 281.47803,137.549993 C284.2197,137.64642 285.548836,140.953624 288.579789,140.771194 C288.762219,141.798017 289.903713,141.050052 290.47446,141.427944 C291.610741,140.281238 293.401166,140.948412 294.540054,139.806918 C295.772763,137.920066 298.61086,138.120739 299.179001,135.655321 C300.607171,135.655321 301.45417,134.138542 302.400202,133.380152 C302.783306,132.822436 302.024917,132.142231 302.879734,131.670518 C304.016015,131.779976 303.627699,130.153739 304.771799,130.153739 C305.152297,129.197282 305.996689,128.360708 306.476221,127.599712 C306.476221,125.89529 308.555929,124.954469 309.694816,123.807763 C311.115168,123.156226 310.4506,120.784629 312.055988,120.315522 C312.155022,120.497953 312.446911,120.602199 312.446911,120.789842 C311.672884,121.735874 312.342665,123.067617 312.624129,124.203898 C311.490454,128.368526 311.592093,133.288937 311.305417,137.456171 C310.638243,138.785308 311.122986,140.583551 310.4506,141.904869 C310.638243,143.520682 309.694816,144.849819 309.97628,146.43957 C309.319531,148.065808 309.887671,149.775442 309.228315,151.383437 C308.941639,152.425897 309.410746,153.468357 308.759208,154.406571 C309.134494,155.548065 308.086822,156.387245 308.472532,157.726806 C307.143395,158.672839 308.277071,160.176587 307.333644,161.219047 C308.180643,163.126749 306.481433,165.024026 307.140789,166.905666 C306.197363,167.770908 307.232004,168.808156 306.760291,169.74637 C307.333644,170.507366 306.291184,171.257937 306.197363,172.024145 C305.631828,173.353282 305.814259,174.864849 305.160115,176.094952 C304.586762,178.648979 304.956835,181.208218 303.544302,183.392172 L304.305298,185.185203 C304.109837,185.65431 303.632911,185.940986 303.632911,186.410093 C303.163804,188.403798 301.83988,190.282832 302.499236,192.560607 C301.368167,193.707313 302.499236,195.312702 301.464594,196.448983 C301.177918,197.301194 301.464594,198.056978 301.464594,198.831004 C299.006995,199.951649 301.65745,202.505676 299.666351,203.939058 C300.422134,204.601021 299.192032,205.163949 299.953027,205.73209 C297.868107,206.860553 299.853994,209.328577 298.050538,210.561286 C298.446673,213.310774 296.726614,215.765767 296.544183,218.609077 C295.118619,220.321318 295.592938,222.867526 294.362836,224.681407 C294.456657,225.056692 294.641694,225.523193 295.222865,225.332944 C297.399,227.1364 293.799907,225.619621 293.799907,227.516898 C293.325588,228.173648 293.325588,228.741788 293.799907,229.419387 C292.184094,230.461847 292.095485,232.3487 291.808809,234.042697 C290.862776,236.690546 289.815104,239.244573 288.777856,241.902846 C287.175074,243.706302 288.777856,246.922291 286.411472,248.162818 C286.03358,250.052277 284.803477,251.655059 284.618441,253.646158 C283.096449,254.688618 283.281486,256.67711 282.439699,257.998429 C282.153023,258.754212 281.209596,259.603817 281.960168,260.276204 C281.386815,261.313451 280.260958,262.069235 280.354779,263.403584 C279.124676,264.628474 278.738966,266.515327 278.366287,268.224961 C276.184939,269.361243 277.891967,271.925694 276.093724,273.34344 C274.206871,273.718726 274.675978,276.001713 273.443269,277.130176 C273.357266,278.081421 271.931702,279.874452 273.821161,280.064701 C273.638731,280.260162 273.544909,280.260162 273.359872,280.346165 C273.359872,280.533808 273.255626,280.914306 273.448482,281.101949 C274.490942,281.868157 274.490942,284.145932 276.3804,283.473545 C276.575862,284.899109 278.095247,284.046898 278.947458,284.333575 C279.789245,285.370822 280.823886,284.145932 281.970592,284.60722 C282.447518,284.802682 282.257269,285.266576 282.543945,285.550647 C283.396156,285.753926 283.675014,284.802682 284.237943,284.42479 C283.961691,283.106078 285.186581,282.720368 285.37683,281.680514 C286.041399,281.015946 286.698148,280.155916 287.654605,279.595594 C287.27932,278.078815 289.176597,277.406428 288.697065,275.801039 C290.404094,274.758579 289.549276,272.204552 291.728018,272.01691 C291.923479,270.97445 289.929774,269.845987 291.642015,269.082385 C292.770478,268.23278 290.787198,267.284141 292.014694,266.523145 C292.679263,265.962823 293.239585,266.721213 293.911972,266.820246 C294.954432,266.444961 294.193436,265.121037 294.573934,264.44865 C295.895252,263.510436 294.662543,261.983232 295.519966,260.852163 C297.604886,260.852163 296.374783,258.19389 297.511065,257.35471 C296.841284,255.548648 299.6872,256.020361 299.210275,254.313332 C297.88635,253.192688 300.440377,252.890374 299.590773,251.576875 C301.10234,251.378807 299.684594,249.577958 301.10234,249.40074 C302.335049,248.723141 301.10234,247.503462 300.815663,246.638221 C301.10234,245.700007 302.431476,246.257723 302.811974,245.319509 C303.002223,245.040651 302.811974,244.746156 302.525297,244.563725 C301.865942,243.98516 301.865942,244.941617 301.196161,244.845189 C300.727054,244.649728 301.005912,244.180621 300.917303,243.797517 C301.196161,242.859303 302.238621,243.32841 302.811974,242.953124 C303.567758,241.905452 304.042077,240.962026 304.042077,239.54428 C305.084537,238.694675 303.747582,237.086681 305.178358,236.690546 C305.457216,235.846153 306.025357,235.19201 305.736074,234.045304 C305.926323,233.672624 306.309427,233.672624 306.596104,233.862873 L306.778534,233.28952 C306.596104,232.059417 305.173146,232.439915 304.597187,231.673707 C304.883863,231.301028 305.261755,231.02217 305.822077,231.115991 C307.346675,231.207206 305.822077,229.604424 307.346675,229.604424 C306.205181,227.337073 309.514992,226.76372 308.665387,224.49637 C309.329955,223.915198 308.287495,222.784129 309.42117,222.403631 C308.191068,221.264744 310.372415,221.561845 310.372415,220.704422 C310.189985,220.144099 310.56527,218.619502 309.423777,218.528286 C309.147525,217.285153 310.752913,217.571829 311.417481,217.016719 C311.417481,216.730043 311.511303,216.33912 311.32366,216.15669 C312.079444,214.368871 309.994523,214.738944 309.614026,213.409808 C310.369809,212.27092 311.036983,211.429134 312.548551,211.429134 C313.017658,210.855781 311.988228,210.660319 311.988228,210.183394 C311.60773,209.432823 312.738799,209.714287 313.017658,209.333789 C312.840439,208.481578 313.971508,207.626761 312.840439,207.066438 C312.46776,206.310655 313.127116,205.919732 313.687438,205.638268 C313.218331,204.700054 312.175871,205.638268 311.60773,204.882485 C311.412269,204.220523 311.988228,203.553348 312.076837,202.901811 C312.545944,202.901811 312.545944,203.467345 312.837833,203.657594 C313.312152,203.754022 313.403368,203.365705 313.684832,203.183275 C315.397072,203.183275 313.684832,201.194782 315.105184,200.530214 C315.287614,199.860434 315.860967,198.914401 315.105184,198.354079 C314.062724,198.354079 312.923836,197.877153 312.269692,197.215191 C313.012445,195.990301 314.542255,196.746084 315.488288,196.649657 C315.76454,196.162307 316.145038,195.695806 315.860967,195.130271 C316.807,194.270242 314.719473,194.374488 315.582109,193.436274 C317.661817,192.857709 315.960001,191.161105 317.093676,190.204648 C316.426502,190.100402 315.76454,189.545292 315.485682,188.974545 C315.761934,187.645408 316.804394,188.505438 317.557571,188.40901 C318.803311,186.610767 315.576897,186.707194 316.040792,185.190415 C316.528142,184.716096 317.278713,184.716096 317.846854,185.086169 C318.508816,184.346023 318.889314,183.300956 318.508816,182.253284 C319.082169,181.117003 318.803311,180.077149 319.264599,178.847046 C319.642491,177.898407 319.264599,176.845523 320.028201,176.188773 C319.93438,175.232316 320.210632,173.817176 319.363633,173.07703 C320.307059,171.747893 321.258304,169.931407 320.969021,168.140982 C322.584834,166.629415 320.969021,164.53407 322.305976,162.840072 C320.877806,161.505724 323.817543,161.414508 322.962726,160.09319 C322.67605,157.721594 324.482112,155.74092 323.6299,153.265077 C324.380472,153.074828 323.71851,152.032368 324.099007,151.461621 C322.962726,150.434798 324.959037,149.778048 323.6299,148.816379 C323.911365,148.52449 324.281438,148.34206 324.581145,148.151811 C324.674967,147.682704 324.487324,147.310024 324.10422,147.020742 C324.013005,146.833099 323.921789,146.361386 324.200647,146.259746 C326.18914,146.259746 324.677573,143.705719 325.615787,142.572044 C324.586358,140.956231 326.85892,140.109232 325.615787,138.597665 C326.952742,137.174707 325.336929,135.183608 326.475816,133.945687 C326.475816,132.058834 327.043957,130.250166 326.952742,128.454529 C327.698101,127.313035 326.18914,125.801468 327.51567,124.759008 C327.416636,122.681907 327.234206,120.216489 328.089023,118.134175 C327.606885,117.378391 328.370487,116.049255 327.812771,115.09801 C327.890956,114.342227 328.464309,113.3988 328.091629,112.825447 C327.815377,112.069664 327.700707,111.319092 328.464309,110.740527 C327.982171,109.54691 328.365275,108.030131 328.555524,106.805241 L328.532069,106.813059 Z M85.0551081,112.030571 C84.2002909,112.770718 83.7416085,114.011245 82.5975086,114.198888 C81.8417251,114.863457 82.4150781,116.283808 81.284009,116.466239 C79.947054,117.698948 79.668196,119.791686 77.9741984,120.453648 C76.3583854,122.817426 74.0910349,124.805919 72.5716494,127.081088 C70.497154,127.453767 72.1025424,130.294471 69.7257336,129.921791 C68.9829808,130.195437 68.9829808,130.956433 68.7041228,131.519361 C67.8493056,132.567034 65.8556008,132.387209 65.7643855,133.984779 C64.331003,136.450197 61.7821883,136.825483 60.265409,139.098046 C58.9362725,139.488968 58.2586734,140.891077 57.226638,141.751106 C55.8975015,142.8926 54.672611,144.122703 53.0672226,144.982732 C52.5902971,146.869585 50.3099158,146.293626 49.653166,148.188297 C48.4282755,148.957111 47.4796369,150.090786 46.1531065,150.653715 C45.6839995,151.78739 44.2558293,151.227068 43.9691528,152.540568 C42.6504409,152.923672 43.0309388,154.539485 41.5193718,154.539485 C39.8149497,155.008592 39.4266333,157.197758 37.6283898,157.288973 C37.250498,160.33035 33.2683008,157.771111 33.1718732,160.799457 C32.2336592,161.659486 30.8002767,162.222415 29.6666014,162.892195 C29.0932484,164.033689 27.5816814,163.830409 26.9301439,164.8859 C26.2525449,165.146515 25.9710807,164.494978 25.6010074,164.033689 C25.6896165,162.894802 25.2100849,160.984494 26.8311102,160.71606 C27.2011835,159.767422 25.1188696,158.435679 26.8311102,157.963966 C27.6911397,156.642648 28.4364986,154.648943 27.6911397,152.855912 C29.0984607,152.188737 27.2011835,150.870025 28.3426772,149.921387 C28.1446098,149.256818 28.8196027,148.402001 27.7771427,148.305574 C27.8657518,147.461181 27.2950049,145.847974 28.6215353,145.46487 C29.2861035,144.901942 29.2861035,143.572805 29.0906423,142.629379 C28.2358251,141.769349 30.9801011,139.872072 28.5225016,139.69746 C28.616323,139.030286 29.7604228,139.124107 30.0523117,138.376142 C30.0523117,136.85415 28.5198954,135.822115 29.0880361,134.206302 C28.8117842,132.311631 30.5083879,133.638161 30.787246,132.126594 C31.2719899,130.13289 29.3721065,128.712538 30.2269237,127.002903 C30.4197788,124.357661 30.9774949,121.887031 31.2693837,119.43725 C32.1137763,118.108113 31.5560602,116.682549 32.2232346,115.26741 C31.5586664,112.239063 34.3863392,109.867467 32.7835569,106.839121 C33.3569099,105.989516 33.8260169,105.41095 33.7269832,104.285094 C34.1960902,103.242634 33.8234107,101.913497 34.5818004,101.063892 L35.2333379,97.7410508 C36.7579357,97.8452968 35.999546,96.0392348 36.3800439,95.1948422 C35.4314053,94.7127045 35.7285064,93.1099222 35.8171155,92.3541387 C36.4790776,91.6921766 35.999546,90.7383257 35.8171155,90.0763636 L35.7259003,89.8861146 C37.5137192,89.0365097 35.9969399,87.0401988 37.3208641,86.1984123 L37.5137192,86.3808428 C38.0792537,86.1019848 37.8785802,85.5312379 38.0792537,85.0621309 C37.7039681,84.9578849 37.232255,84.7754544 37.3234702,84.3897442 C37.1306151,83.4411056 38.6526068,82.7817496 37.6101467,81.9399632 C37.8785802,81.9399632 38.4623578,81.7392896 38.4623578,81.2623641 C38.3685364,81.0799336 38.5587854,81.0799336 38.6500006,80.9861122 C38.8428557,81.0825398 38.7542466,81.3718224 39.0226801,81.5594652 C39.4083903,80.4127592 39.5960331,78.9011922 39.2207475,77.8587322 C39.1243199,77.1029487 40.8209236,76.7224508 39.872285,75.6799908 C39.5960331,75.2994929 39.5960331,74.5463155 39.872285,74.1736361 C40.7323145,73.9859933 40.0651401,73.02693 40.359635,72.6542506 C42.3350968,70.9446162 39.7914943,68.5886565 41.2900306,66.5923456 C41.1076001,66.0320234 41.0137787,65.5603102 41.3994889,65.0807786 C41.9519927,64.8879235 42.5357703,65.4612765 43.0048773,64.8879235 C42.7182008,63.941891 43.5625934,62.899431 42.6243794,62.2348628 C43.0986987,60.345404 42.9110559,58.1692687 44.1437649,56.7358862 C44.3261954,55.1383162 43.8570884,53.2436452 45.3686554,52.1021514 C45.4546583,51.0544791 44.8995484,49.2614479 46.507543,48.8887684 C47.7454642,48.8887684 46.4189339,47.9401298 46.7003981,47.3667768 C47.3649663,46.7986361 46.9792561,45.5685333 47.8418918,45.3808905 C48.5976753,43.6790745 49.1710283,41.8756187 50.0128147,40.1738027 C50.6982322,38.0888827 52.7753338,36.9552075 53.5206927,34.966715 C54.3807222,33.9190427 55.7098587,34.0180764 56.7523187,33.350902 C57.7947787,33.455148 58.3577071,32.2094082 59.4939886,32.3084419 C60.0595231,31.1773728 61.1045893,31.7455135 61.7691575,30.5101984 C62.4285135,31.3702279 62.8116176,29.8508425 63.5621888,30.6144444 C64.7975039,29.7596272 66.4967137,30.9923362 67.5574168,29.8508425 C69.5380908,30.416377 71.6230108,30.7890565 73.7079308,31.2633758 C75.1230703,29.373917 76.6450619,31.6542983 78.0602014,31.8367288 C78.6335544,33.1580469 79.668196,31.8367288 80.5360439,32.1155868 C81.4742579,34.2005069 83.7520331,32.9756164 84.7918869,34.9615027 C87.2494864,34.3881497 88.2945526,37.241884 90.2752266,37.9950613 C91.8832212,38.9332753 92.453968,41.2136566 94.3538514,41.4925147 C94.9089613,42.8086204 95.2972777,44.4296457 96.6264142,45.1854293 C97.5750528,47.7394563 99.6547606,49.9129854 99.9362248,52.7562951 C101.92993,56.9261351 102.117572,61.7475127 103.071423,66.3864598 C102.49807,68.4791982 104.296314,71.1296528 102.878568,73.3005758 C102.784747,77.3713821 101.35397,80.7802264 100.598187,84.4809594 C99.6599729,85.7136684 100.035258,87.6031272 98.7035158,88.6560118 C97.8591232,90.0685451 97.9477323,91.7703611 96.7228418,92.9952516 C97.1919488,94.5120309 95.3937053,94.7022799 95.3937053,96.0288102 C94.3590637,98.1137303 92.3601466,99.7217248 92.1620792,102.10114 C90.2778327,103.508461 89.8061196,106.166734 87.9088424,107.678301 C87.7055627,109.666793 85.0525019,110.042079 85.0525019,112.030571 L85.0551081,112.030571 Z M215.839535,106.052063 C215.36261,106.333527 214.992536,106.625416 214.70586,107.185739 C215.555465,108.890161 212.902404,108.999619 213.473151,110.599795 C212.41766,111.081933 212.717367,112.411069 211.492477,112.411069 C210.622023,114.019064 209.212096,114.970309 208.912388,116.76334 C207.59107,117.618157 207.114145,119.03069 206.358361,120.266006 L206.358361,120.735113 C205.044862,121.960003 204.377687,123.382961 202.944305,124.524455 C202.944305,125.848379 201.346735,126.127237 201.057452,127.172303 C200.588345,129.23898 197.55218,129.72633 197.940497,131.902465 C196.806821,132.181323 195.667934,133.137781 195.381257,134.182847 C193.218153,135.79866 192.071447,138.165044 189.981315,139.676611 C189.0431,140.719071 187.992822,141.657285 186.95818,142.423493 C186.296218,144.690844 183.640551,144.125309 182.506876,146.014768 C182.316627,146.202411 182.037769,146.202411 181.844914,146.014768 C181.545207,145.73591 181.464416,145.167769 180.896276,145.167769 C181.370595,144.594416 182.314021,144.30774 182.981196,144.411986 C182.780522,142.519921 184.120083,141.18036 183.736979,139.199686 C183.91941,138.532511 184.875867,138.8244 184.875867,138.060798 C184.310332,136.262554 186.395252,135.037664 186.486467,133.325423 C187.33086,132.191748 187.33086,130.685393 188.47496,129.932216 C188.47496,128.78551 189.606029,128.120942 190.179382,127.091512 C192.454551,123.672244 195.574112,121.024395 198.227173,117.620763 C199.366061,116.857161 200.405915,115.999738 201.544802,115.066736 C202.399619,115.150133 202.300586,114.206707 202.774905,113.727175 C203.90858,113.351889 204.672182,111.83511 205.897073,111.746501 C206.647644,110.328755 208.357278,110.328755 208.920207,108.890161 C210.353589,109.184656 210.53602,107.581873 211.005127,106.818271 C213.27769,107.188345 214.791863,105.202458 216.120999,103.88114 C216.597925,104.532678 215.93075,105.293674 215.834323,106.052063 L215.839535,106.052063 Z" id="Shape" fill="#6CC055" sketch:type="MSShapeGroup"></path>
    </g>
</svg>